<svg xmlns="http://www.w3.org/2000/svg" viewBox="0 0 800 420" role="img" aria-labelledby="title desc"><title id="title">Estádios e locais do acervo</title><desc id="desc">Prévia em preto e branco derivada das localizações da camada combinada de estádios masculinos.</desc><defs><pattern id="grid" width="48" height="48" patternUnits="userSpaceOnUse"><path d="M48 0H0V48" fill="none" stroke="#fff" stroke-opacity=".07" stroke-width=".7"/></pattern><radialGradient id="glow"><stop stop-color="#fff" stop-opacity=".12"/><stop offset="1" stop-color="#fff" stop-opacity="0"/></radialGradient><style>.route{fill:none;stroke:#f4f4f5;stroke-width:2.3;stroke-linecap:round;stroke-linejoin:round;stroke-dasharray:8 9;animation:flow 22s linear infinite}.route:nth-of-type(3n){stroke-opacity:.55;animation-duration:31s}.point{fill:#fff;stroke:#fff;stroke-width:1;animation:pulse 3.8s ease-in-out infinite;transform-box:fill-box;transform-origin:center}.point:nth-of-type(3n){animation-delay:1.1s}@keyframes flow{to{stroke-dashoffset:-340}}@keyframes pulse{0%,100%{opacity:.52;transform:scale(.8)}50%{opacity:1;transform:scale(1.4)}}@media(prefers-reduced-motion:reduce){.route,.point{animation:none!important}}</style></defs><rect width="800" height="420" fill="#090a0e"/><rect width="800" height="420" fill="url(#grid)"/><ellipse cx="416" cy="201.6" rx="384" ry="260.4" fill="url(#glow)"/><path d="M0 323.40000000000003H800M160 0V420M640 0V420" fill="none" stroke="#fff" stroke-opacity=".1" stroke-width=".8"/><circle class="point" cx="79.3" cy="146.3" r="2.5"/><circle class="point" cx="88.1" cy="154.4" r="1.4"/><circle class="point" cx="91.3" cy="158.1" r="1.4"/><circle class="point" cx="132.2" cy="174.7" r="1.4"/><circle class="point" cx="134.9" cy="190.4" r="1.4"/><circle class="point" cx="134.9" cy="190.3" r="1.4"/><circle class="point" cx="135.0" cy="190.5" r="1.4"/><circle class="point" cx="136.0" cy="188.5" r="2.5"/><circle class="point" cx="136.0" cy="188.5" r="1.4"/><circle class="point" cx="156.2" cy="201.9" r="1.4"/><circle class="point" cx="159.4" cy="204.2" r="1.4"/><circle class="point" cx="166.6" cy="208.0" r="1.4"/><circle class="point" cx="177.9" cy="163.5" r="1.4"/><circle class="point" cx="178.1" cy="168.3" r="1.4"/><circle class="point" cx="178.5" cy="167.8" r="2.5"/><circle class="point" cx="178.6" cy="167.8" r="1.4"/><circle class="point" cx="179.0" cy="167.7" r="1.4"/><circle class="point" cx="181.6" cy="173.6" r="1.4"/><circle class="point" cx="181.7" cy="173.1" r="1.4"/><circle class="point" cx="182.1" cy="243.2" r="1.4"/><circle class="point" cx="182.2" cy="243.1" r="1.4"/><circle class="point" cx="182.2" cy="243.1" r="2.5"/><circle class="point" cx="182.2" cy="243.2" r="1.4"/><circle class="point" cx="183.1" cy="215.8" r="1.4"/><circle class="point" cx="184.4" cy="244.9" r="1.4"/><circle class="point" cx="184.4" cy="244.9" r="1.4"/><circle class="point" cx="185.7" cy="238.1" r="1.4"/><circle class="point" cx="185.7" cy="238.2" r="1.4"/><circle class="point" cx="185.7" cy="238.7" r="2.5"/><circle class="point" cx="189.2" cy="267.4" r="1.4"/><circle class="point" cx="189.5" cy="267.3" r="1.4"/><circle class="point" cx="189.9" cy="193.7" r="1.4"/><circle class="point" cx="190.4" cy="229.4" r="1.4"/><circle class="point" cx="190.7" cy="229.2" r="1.4"/><circle class="point" cx="192.8" cy="222.5" r="1.4"/><circle class="point" cx="193.0" cy="225.4" r="2.5"/><circle class="point" cx="193.7" cy="226.9" r="1.4"/><circle class="point" cx="196.5" cy="226.4" r="1.4"/><circle class="point" cx="196.8" cy="137.8" r="1.4"/><circle class="point" cx="197.8" cy="126.3" r="1.4"/><circle class="point" cx="198.2" cy="224.2" r="1.4"/><circle class="point" cx="201.1" cy="218.7" r="1.4"/><circle class="point" cx="205.0" cy="319.8" r="2.5"/><circle class="point" cx="205.0" cy="319.9" r="1.4"/><circle class="point" cx="205.2" cy="319.7" r="1.4"/><circle class="point" cx="207.4" cy="302.2" r="1.4"/><circle class="point" cx="208.4" cy="213.3" r="1.4"/><circle class="point" cx="208.4" cy="213.3" r="1.4"/><circle class="point" cx="209.2" cy="208.0" r="1.4"/><circle class="point" cx="211.1" cy="278.2" r="2.5"/><circle class="point" cx="211.8" cy="262.2" r="1.4"/><circle class="point" cx="213.6" cy="281.8" r="1.4"/><circle class="point" cx="214.1" cy="212.1" r="1.4"/><circle class="point" cx="215.9" cy="280.4" r="1.4"/><circle class="point" cx="221.4" cy="259.3" r="1.4"/><circle class="point" cx="224.4" cy="217.4" r="1.4"/><circle class="point" cx="227.2" cy="211.7" r="2.5"/><circle class="point" cx="229.3" cy="318.5" r="1.4"/><circle class="point" cx="229.4" cy="318.6" r="1.4"/><circle class="point" cx="230.9" cy="245.4" r="1.4"/><circle class="point" cx="231.0" cy="245.5" r="1.4"/><circle class="point" cx="234.6" cy="322.7" r="1.4"/><circle class="point" cx="234.7" cy="322.4" r="1.4"/><circle class="point" cx="234.7" cy="322.6" r="2.5"/><circle class="point" cx="234.8" cy="322.5" r="1.4"/><circle class="point" cx="234.8" cy="322.7" r="1.4"/><circle class="point" cx="234.9" cy="322.6" r="1.4"/><circle class="point" cx="234.9" cy="322.9" r="1.4"/><circle class="point" cx="235.0" cy="322.8" r="1.4"/><circle class="point" cx="235.0" cy="322.8" r="1.4"/><circle class="point" cx="235.0" cy="322.7" r="2.5"/><circle class="point" cx="236.0" cy="323.4" r="1.4"/><circle class="point" cx="236.7" cy="284.4" r="1.4"/><circle class="point" cx="236.7" cy="299.8" r="1.4"/><circle class="point" cx="236.8" cy="299.8" r="1.4"/><circle class="point" cx="236.9" cy="331.0" r="1.4"/><circle class="point" cx="240.4" cy="323.4" r="1.4"/><circle class="point" cx="240.4" cy="323.3" r="2.5"/><circle class="point" cx="240.4" cy="323.3" r="1.4"/><circle class="point" cx="240.5" cy="276.0" r="1.4"/><circle class="point" cx="240.5" cy="276.1" r="1.4"/><circle class="point" cx="240.6" cy="323.1" r="1.4"/><circle class="point" cx="241.0" cy="269.8" r="1.4"/><circle class="point" cx="243.7" cy="292.3" r="1.4"/><circle class="point" cx="243.7" cy="292.3" r="2.5"/><circle class="point" cx="243.8" cy="292.3" r="1.4"/><circle class="point" cx="244.2" cy="288.0" r="1.4"/><circle class="point" cx="244.2" cy="300.4" r="1.4"/><circle class="point" cx="244.2" cy="300.4" r="1.4"/><circle class="point" cx="244.2" cy="288.1" r="1.4"/><circle class="point" cx="246.9" cy="299.0" r="1.4"/><circle class="point" cx="247.4" cy="296.0" r="2.5"/><circle class="point" cx="247.4" cy="296.0" r="1.4"/><circle class="point" cx="248.9" cy="302.1" r="1.4"/><circle class="point" cx="249.1" cy="304.2" r="1.4"/><circle class="point" cx="249.4" cy="294.4" r="1.4"/><circle class="point" cx="249.5" cy="294.4" r="1.4"/><circle class="point" cx="249.8" cy="315.7" r="1.4"/><circle class="point" cx="250.7" cy="295.2" r="2.5"/><circle class="point" cx="251.4" cy="295.4" r="1.4"/><circle class="point" cx="252.0" cy="295.2" r="1.4"/><circle class="point" cx="252.0" cy="292.0" r="1.4"/><circle class="point" cx="252.1" cy="292.1" r="1.4"/><circle class="point" cx="252.1" cy="292.0" r="1.4"/><circle class="point" cx="252.1" cy="289.0" r="1.4"/><circle class="point" cx="252.1" cy="295.0" r="2.5"/><circle class="point" cx="252.5" cy="311.5" r="1.4"/><circle class="point" cx="252.5" cy="311.4" r="1.4"/><circle class="point" cx="252.5" cy="311.5" r="1.4"/><circle class="point" cx="252.5" cy="311.5" r="1.4"/><circle class="point" cx="252.6" cy="311.4" r="1.4"/><circle class="point" cx="252.6" cy="311.4" r="1.4"/><circle class="point" cx="252.6" cy="309.3" r="2.5"/><circle class="point" cx="252.6" cy="311.3" r="1.4"/><circle class="point" cx="252.6" cy="309.3" r="1.4"/><circle class="point" cx="252.6" cy="294.9" r="1.4"/><circle class="point" cx="252.7" cy="294.9" r="1.4"/><circle class="point" cx="252.7" cy="310.7" r="1.4"/><circle class="point" cx="253.0" cy="291.0" r="1.4"/><circle class="point" cx="254.0" cy="297.4" r="2.5"/><circle class="point" cx="254.2" cy="291.6" r="1.4"/><circle class="point" cx="254.4" cy="289.8" r="1.4"/><circle class="point" cx="254.4" cy="293.3" r="1.4"/><circle class="point" cx="254.5" cy="293.4" r="1.4"/><circle class="point" cx="254.7" cy="289.9" r="1.4"/><circle class="point" cx="255.1" cy="299.4" r="1.4"/><circle class="point" cx="255.3" cy="290.3" r="2.5"/><circle class="point" cx="255.3" cy="294.3" r="1.4"/><circle class="point" cx="255.3" cy="290.3" r="1.4"/><circle class="point" cx="255.6" cy="294.6" r="1.4"/><circle class="point" cx="255.6" cy="294.6" r="1.4"/><circle class="point" cx="255.6" cy="287.8" r="1.4"/><circle class="point" cx="255.6" cy="292.3" r="1.4"/><circle class="point" cx="255.8" cy="294.1" r="2.5"/><circle class="point" cx="256.1" cy="290.9" r="1.4"/><circle class="point" cx="256.1" cy="290.9" r="1.4"/><circle class="point" cx="256.1" cy="290.9" r="1.4"/><circle class="point" cx="256.4" cy="292.2" r="1.4"/><circle class="point" cx="256.4" cy="294.3" r="1.4"/><circle class="point" cx="256.4" cy="293.9" r="1.4"/><circle class="point" cx="256.4" cy="294.3" r="2.5"/><circle class="point" cx="256.7" cy="288.8" r="1.4"/><circle class="point" cx="256.7" cy="288.8" r="1.4"/><circle class="point" cx="256.7" cy="288.8" r="1.4"/><circle class="point" cx="257.0" cy="288.9" r="1.4"/><circle class="point" cx="257.0" cy="288.8" r="1.4"/><circle class="point" cx="257.0" cy="288.8" r="1.4"/><circle class="point" cx="257.0" cy="288.8" r="2.5"/><circle class="point" cx="257.1" cy="308.1" r="1.4"/><circle class="point" cx="257.1" cy="288.8" r="1.4"/><circle class="point" cx="257.3" cy="278.7" r="1.4"/><circle class="point" cx="257.3" cy="300.2" r="1.4"/><circle class="point" cx="257.3" cy="278.7" r="1.4"/><circle class="point" cx="257.3" cy="278.8" r="1.4"/><circle class="point" cx="257.3" cy="300.1" r="2.5"/><circle class="point" cx="257.3" cy="300.1" r="1.4"/><circle class="point" cx="257.3" cy="300.2" r="1.4"/><circle class="point" cx="257.3" cy="278.7" r="1.4"/><circle class="point" cx="257.4" cy="282.9" r="1.4"/><circle class="point" cx="257.4" cy="278.7" r="1.4"/><circle class="point" cx="257.4" cy="300.4" r="1.4"/><circle class="point" cx="257.4" cy="290.4" r="2.5"/><circle class="point" cx="257.4" cy="300.1" r="1.4"/><circle class="point" cx="257.4" cy="290.4" r="1.4"/><circle class="point" cx="257.7" cy="292.5" r="1.4"/><circle class="point" cx="257.8" cy="292.5" r="1.4"/><circle class="point" cx="257.8" cy="292.5" r="1.4"/><circle class="point" cx="257.8" cy="292.5" r="1.4"/><circle class="point" cx="258.0" cy="289.7" r="2.5"/><circle class="point" cx="258.0" cy="289.6" r="1.4"/><circle class="point" cx="258.1" cy="277.9" r="1.4"/><circle class="point" cx="258.1" cy="294.4" r="1.4"/><circle class="point" cx="258.2" cy="304.2" r="1.4"/><circle class="point" cx="258.2" cy="304.2" r="1.4"/><circle class="point" cx="258.3" cy="302.3" r="1.4"/><circle class="point" cx="258.4" cy="302.3" r="2.5"/><circle class="point" cx="258.8" cy="303.8" r="1.4"/><circle class="point" cx="258.8" cy="289.0" r="1.4"/><circle class="point" cx="258.8" cy="289.0" r="1.4"/><circle class="point" cx="259.0" cy="305.4" r="1.4"/><circle class="point" cx="259.0" cy="292.5" r="1.4"/><circle class="point" cx="259.0" cy="288.2" r="1.4"/><circle class="point" cx="259.0" cy="292.5" r="2.5"/><circle class="point" cx="259.0" cy="292.5" r="1.4"/><circle class="point" cx="259.0" cy="293.5" r="1.4"/><circle class="point" cx="259.0" cy="288.2" r="1.4"/><circle class="point" cx="259.1" cy="305.5" r="1.4"/><circle class="point" cx="259.1" cy="305.4" r="1.4"/><circle class="point" cx="259.1" cy="305.6" r="1.4"/><circle class="point" cx="259.2" cy="290.3" r="2.5"/><circle class="point" cx="259.2" cy="290.3" r="1.4"/><circle class="point" cx="259.2" cy="289.2" r="1.4"/><circle class="point" cx="259.3" cy="241.3" r="1.4"/><circle class="point" cx="259.3" cy="293.9" r="1.4"/><circle class="point" cx="259.3" cy="241.3" r="1.4"/><circle class="point" cx="259.3" cy="241.2" r="1.4"/><circle class="point" cx="259.5" cy="290.8" r="2.5"/><circle class="point" cx="259.5" cy="290.8" r="1.4"/><circle class="point" cx="259.6" cy="289.9" r="1.4"/><circle class="point" cx="259.6" cy="287.6" r="1.4"/><circle class="point" cx="259.7" cy="284.2" r="1.4"/><circle class="point" cx="259.8" cy="255.5" r="1.4"/><circle class="point" cx="259.8" cy="284.2" r="1.4"/><circle class="point" cx="260.0" cy="291.2" r="2.5"/><circle class="point" cx="260.0" cy="283.5" r="1.4"/><circle class="point" cx="260.0" cy="291.2" r="1.4"/><circle class="point" cx="260.0" cy="291.2" r="1.4"/><circle class="point" cx="260.2" cy="276.6" r="1.4"/><circle class="point" cx="260.3" cy="295.6" r="1.4"/><circle class="point" cx="260.4" cy="289.6" r="1.4"/><circle class="point" cx="260.5" cy="276.6" r="2.5"/><circle class="point" cx="260.5" cy="286.2" r="1.4"/><circle class="point" cx="260.5" cy="286.2" r="1.4"/><circle class="point" cx="260.6" cy="291.8" r="1.4"/><circle class="point" cx="260.7" cy="276.5" r="1.4"/><circle class="point" cx="260.7" cy="291.8" r="1.4"/><circle class="point" cx="260.7" cy="291.8" r="1.4"/><circle class="point" cx="260.8" cy="294.3" r="2.5"/><circle class="point" cx="260.8" cy="289.7" r="1.4"/><circle class="point" cx="260.8" cy="289.7" r="1.4"/><circle class="point" cx="260.9" cy="289.7" r="1.4"/><circle class="point" cx="260.9" cy="289.8" r="1.4"/><circle class="point" cx="260.9" cy="289.7" r="1.4"/><circle class="point" cx="260.9" cy="287.6" r="1.4"/><circle class="point" cx="261.1" cy="294.4" r="2.5"/><circle class="point" cx="261.2" cy="293.5" r="1.4"/><circle class="point" cx="261.3" cy="293.5" r="1.4"/><circle class="point" cx="261.3" cy="293.5" r="1.4"/><circle class="point" cx="261.3" cy="293.5" r="1.4"/><circle class="point" cx="261.3" cy="293.5" r="1.4"/><circle class="point" cx="261.3" cy="293.5" r="1.4"/><circle class="point" cx="261.4" cy="289.0" r="2.5"/><circle class="point" cx="261.5" cy="292.7" r="1.4"/><circle class="point" cx="261.5" cy="292.8" r="1.4"/><circle class="point" cx="261.5" cy="292.7" r="1.4"/><circle class="point" cx="261.5" cy="292.8" r="1.4"/><circle class="point" cx="261.5" cy="292.8" r="1.4"/><circle class="point" cx="261.6" cy="294.2" r="1.4"/><circle class="point" cx="261.7" cy="291.4" r="2.5"/><circle class="point" cx="261.7" cy="295.4" r="1.4"/><circle class="point" cx="261.7" cy="295.4" r="1.4"/><circle class="point" cx="261.8" cy="295.4" r="1.4"/><circle class="point" cx="261.8" cy="295.4" r="1.4"/><circle class="point" cx="261.8" cy="295.5" r="1.4"/><circle class="point" cx="261.8" cy="295.4" r="1.4"/><circle class="point" cx="261.8" cy="295.5" r="2.5"/><circle class="point" cx="261.8" cy="293.6" r="1.4"/><circle class="point" cx="261.8" cy="291.7" r="1.4"/><circle class="point" cx="261.8" cy="293.6" r="1.4"/><circle class="point" cx="261.8" cy="293.1" r="1.4"/><circle class="point" cx="261.8" cy="293.1" r="1.4"/><circle class="point" cx="261.9" cy="288.1" r="1.4"/><circle class="point" cx="261.9" cy="288.1" r="2.5"/><circle class="point" cx="261.9" cy="293.1" r="1.4"/><circle class="point" cx="261.9" cy="292.6" r="1.4"/><circle class="point" cx="262.0" cy="293.5" r="1.4"/><circle class="point" cx="262.0" cy="292.6" r="1.4"/><circle class="point" cx="262.0" cy="293.5" r="1.4"/><circle class="point" cx="262.0" cy="293.6" r="1.4"/><circle class="point" cx="262.1" cy="294.7" r="2.5"/><circle class="point" cx="262.1" cy="294.9" r="1.4"/><circle class="point" cx="262.5" cy="295.5" r="1.4"/><circle class="point" cx="262.7" cy="293.9" r="1.4"/><circle class="point" cx="262.7" cy="293.9" r="1.4"/><circle class="point" cx="262.7" cy="293.9" r="1.4"/><circle class="point" cx="262.7" cy="294.0" r="1.4"/><circle class="point" cx="262.7" cy="294.0" r="2.5"/><circle class="point" cx="262.7" cy="294.0" r="1.4"/><circle class="point" cx="262.8" cy="290.4" r="1.4"/><circle class="point" cx="262.9" cy="292.8" r="1.4"/><circle class="point" cx="263.0" cy="292.8" r="1.4"/><circle class="point" cx="263.1" cy="294.6" r="1.4"/><circle class="point" cx="263.1" cy="295.4" r="1.4"/><circle class="point" cx="263.1" cy="293.5" r="2.5"/><circle class="point" cx="263.1" cy="294.6" r="1.4"/><circle class="point" cx="263.2" cy="294.7" r="1.4"/><circle class="point" cx="263.2" cy="294.6" r="1.4"/><circle class="point" cx="263.3" cy="292.8" r="1.4"/><circle class="point" cx="263.3" cy="292.8" r="1.4"/><circle class="point" cx="263.3" cy="291.7" r="1.4"/><circle class="point" cx="263.4" cy="291.6" r="2.5"/><circle class="point" cx="263.4" cy="295.4" r="1.4"/><circle class="point" cx="263.4" cy="295.4" r="1.4"/><circle class="point" cx="263.4" cy="293.5" r="1.4"/><circle class="point" cx="263.4" cy="295.5" r="1.4"/><circle class="point" cx="263.4" cy="295.5" r="1.4"/><circle class="point" cx="263.5" cy="292.2" r="1.4"/><circle class="point" cx="263.5" cy="292.2" r="2.5"/><circle class="point" cx="263.5" cy="295.7" r="1.4"/><circle class="point" cx="263.6" cy="293.2" r="1.4"/><circle class="point" cx="263.6" cy="295.5" r="1.4"/><circle class="point" cx="263.6" cy="295.5" r="1.4"/><circle class="point" cx="263.6" cy="295.5" r="1.4"/><circle class="point" cx="263.7" cy="295.5" r="1.4"/><circle class="point" cx="263.7" cy="295.6" r="2.5"/><circle class="point" cx="263.7" cy="295.5" r="1.4"/><circle class="point" cx="263.7" cy="295.6" r="1.4"/><circle class="point" cx="263.7" cy="295.5" r="1.4"/><circle class="point" cx="263.7" cy="295.5" r="1.4"/><circle class="point" cx="263.7" cy="292.9" r="1.4"/><circle class="point" cx="263.7" cy="292.9" r="1.4"/><circle class="point" cx="263.8" cy="295.5" r="2.5"/><circle class="point" cx="263.8" cy="295.5" r="1.4"/><circle class="point" cx="263.8" cy="295.5" r="1.4"/><circle class="point" cx="263.8" cy="295.6" r="1.4"/><circle class="point" cx="263.8" cy="295.5" r="1.4"/><circle class="point" cx="263.8" cy="295.5" r="1.4"/><circle class="point" cx="263.8" cy="296.0" r="1.4"/><circle class="point" cx="263.8" cy="296.0" r="2.5"/><circle class="point" cx="263.8" cy="295.6" r="1.4"/><circle class="point" cx="263.8" cy="295.6" r="1.4"/><circle class="point" cx="263.8" cy="291.2" r="1.4"/><circle class="point" cx="263.8" cy="295.5" r="1.4"/><circle class="point" cx="263.8" cy="288.6" r="1.4"/><circle class="point" cx="263.8" cy="295.5" r="1.4"/><circle class="point" cx="263.8" cy="295.5" r="2.5"/><circle class="point" cx="263.9" cy="295.7" r="1.4"/><circle class="point" cx="263.9" cy="291.9" r="1.4"/><circle class="point" cx="263.9" cy="295.7" r="1.4"/><circle class="point" cx="263.9" cy="295.5" r="1.4"/><circle class="point" cx="263.9" cy="295.5" r="1.4"/><circle class="point" cx="263.9" cy="291.2" r="1.4"/><circle class="point" cx="263.9" cy="291.2" r="2.5"/><circle class="point" cx="263.9" cy="295.7" r="1.4"/><circle class="point" cx="263.9" cy="295.9" r="1.4"/><circle class="point" cx="263.9" cy="295.9" r="1.4"/><circle class="point" cx="264.0" cy="295.9" r="1.4"/><circle class="point" cx="264.0" cy="295.7" r="1.4"/><circle class="point" cx="264.0" cy="295.9" r="1.4"/><circle class="point" cx="264.0" cy="294.1" r="2.5"/><circle class="point" cx="264.0" cy="294.1" r="1.4"/><circle class="point" cx="264.0" cy="296.0" r="1.4"/><circle class="point" cx="264.0" cy="295.8" r="1.4"/><circle class="point" cx="264.0" cy="295.8" r="1.4"/><circle class="point" cx="264.1" cy="295.8" r="1.4"/><circle class="point" cx="264.1" cy="295.8" r="1.4"/><circle class="point" cx="264.1" cy="295.5" r="2.5"/><circle class="point" cx="264.2" cy="295.8" r="1.4"/><circle class="point" cx="264.2" cy="295.4" r="1.4"/><circle class="point" cx="264.4" cy="296.5" r="1.4"/><circle class="point" cx="264.5" cy="296.5" r="1.4"/><circle class="point" cx="264.5" cy="296.5" r="1.4"/><circle class="point" cx="264.5" cy="296.5" r="1.4"/><circle class="point" cx="264.5" cy="296.5" r="2.5"/><circle class="point" cx="264.5" cy="296.5" r="1.4"/><circle class="point" cx="264.6" cy="296.6" r="1.4"/><circle class="point" cx="264.6" cy="296.6" r="1.4"/><circle class="point" cx="264.6" cy="295.5" r="1.4"/><circle class="point" cx="264.8" cy="295.5" r="1.4"/><circle class="point" cx="264.8" cy="295.5" r="1.4"/><circle class="point" cx="265.4" cy="294.9" r="2.5"/><circle class="point" cx="265.4" cy="294.9" r="1.4"/><circle class="point" cx="265.5" cy="292.3" r="1.4"/><circle class="point" cx="265.5" cy="292.3" r="1.4"/><circle class="point" cx="265.6" cy="294.6" r="1.4"/><circle class="point" cx="266.0" cy="294.4" r="1.4"/><circle class="point" cx="266.4" cy="294.2" r="1.4"/><circle class="point" cx="266.4" cy="294.2" r="2.5"/><circle class="point" cx="266.7" cy="290.7" r="1.4"/><circle class="point" cx="266.8" cy="295.7" r="1.4"/><circle class="point" cx="267.3" cy="293.7" r="1.4"/><circle class="point" cx="267.3" cy="293.7" r="1.4"/><circle class="point" cx="267.3" cy="293.7" r="1.4"/><circle class="point" cx="267.5" cy="293.5" r="1.4"/><circle class="point" cx="269.5" cy="244.0" r="2.5"/><circle class="point" cx="269.6" cy="244.0" r="1.4"/><circle class="point" cx="269.7" cy="285.5" r="1.4"/><circle class="point" cx="270.0" cy="293.0" r="1.4"/><circle class="point" cx="270.2" cy="286.7" r="1.4"/><circle class="point" cx="270.3" cy="286.5" r="1.4"/><circle class="point" cx="270.3" cy="286.6" r="1.4"/><circle class="point" cx="270.4" cy="286.6" r="2.5"/><circle class="point" cx="270.4" cy="286.6" r="1.4"/><circle class="point" cx="270.6" cy="286.8" r="1.4"/><circle class="point" cx="270.6" cy="286.8" r="1.4"/><circle class="point" cx="270.7" cy="289.8" r="1.4"/><circle class="point" cx="271.3" cy="293.9" r="1.4"/><circle class="point" cx="271.5" cy="293.9" r="1.4"/><circle class="point" cx="271.6" cy="293.7" r="2.5"/><circle class="point" cx="271.8" cy="291.2" r="1.4"/><circle class="point" cx="271.9" cy="293.9" r="1.4"/><circle class="point" cx="272.0" cy="293.8" r="1.4"/><circle class="point" cx="272.0" cy="294.0" r="1.4"/><circle class="point" cx="272.1" cy="294.0" r="1.4"/><circle class="point" cx="272.1" cy="293.9" r="1.4"/><circle class="point" cx="272.1" cy="294.0" r="2.5"/><circle class="point" cx="272.1" cy="293.9" r="1.4"/><circle class="point" cx="272.1" cy="293.7" r="1.4"/><circle class="point" cx="272.2" cy="293.7" r="1.4"/><circle class="point" cx="272.2" cy="294.0" r="1.4"/><circle class="point" cx="272.2" cy="294.0" r="1.4"/><circle class="point" cx="272.2" cy="294.0" r="1.4"/><circle class="point" cx="272.2" cy="294.1" r="2.5"/><circle class="point" cx="272.4" cy="293.9" r="1.4"/><circle class="point" cx="272.4" cy="293.8" r="1.4"/><circle class="point" cx="273.1" cy="250.3" r="1.4"/><circle class="point" cx="273.2" cy="250.3" r="1.4"/><circle class="point" cx="273.8" cy="285.5" r="1.4"/><circle class="point" cx="273.9" cy="293.9" r="1.4"/><circle class="point" cx="276.7" cy="291.1" r="2.5"/><circle class="point" cx="279.1" cy="287.6" r="1.4"/><circle class="point" cx="279.1" cy="287.6" r="1.4"/><circle class="point" cx="281.7" cy="255.5" r="1.4"/><circle class="point" cx="282.2" cy="257.6" r="1.4"/><circle class="point" cx="282.2" cy="257.6" r="1.4"/><circle class="point" cx="282.5" cy="267.8" r="1.4"/><circle class="point" cx="283.6" cy="247.0" r="2.5"/><circle class="point" cx="283.6" cy="247.1" r="1.4"/><circle class="point" cx="283.6" cy="247.1" r="1.4"/><circle class="point" cx="283.6" cy="269.7" r="1.4"/><circle class="point" cx="283.7" cy="269.6" r="1.4"/><circle class="point" cx="283.9" cy="269.5" r="1.4"/><circle class="point" cx="283.9" cy="269.5" r="1.4"/><circle class="point" cx="283.9" cy="267.6" r="2.5"/><circle class="point" cx="287.1" cy="264.5" r="1.4"/><circle class="point" cx="287.3" cy="264.6" r="1.4"/><circle class="point" cx="290.1" cy="255.6" r="1.4"/><circle class="point" cx="290.4" cy="261.5" r="1.4"/><circle class="point" cx="290.5" cy="261.4" r="1.4"/><circle class="point" cx="290.5" cy="261.5" r="1.4"/><circle class="point" cx="291.8" cy="252.1" r="2.5"/><circle class="point" cx="291.8" cy="252.2" r="1.4"/><circle class="point" cx="292.3" cy="257.5" r="1.4"/><circle class="point" cx="292.5" cy="257.6" r="1.4"/><circle class="point" cx="292.5" cy="257.5" r="1.4"/><circle class="point" cx="292.5" cy="257.5" r="1.4"/><circle class="point" cx="292.6" cy="255.4" r="1.4"/><circle class="point" cx="355.6" cy="142.8" r="2.5"/><circle class="point" cx="357.0" cy="136.9" r="1.4"/><circle class="point" cx="357.4" cy="131.5" r="1.4"/><circle class="point" cx="359.3" cy="155.5" r="1.4"/><circle class="point" cx="359.3" cy="155.5" r="1.4"/><circle class="point" cx="360.9" cy="142.5" r="1.4"/><circle class="point" cx="362.7" cy="148.3" r="1.4"/><circle class="point" cx="363.4" cy="146.1" r="2.5"/><circle class="point" cx="367.1" cy="119.1" r="1.4"/><circle class="point" cx="367.2" cy="147.7" r="1.4"/><circle class="point" cx="377.2" cy="141.0" r="1.4"/><circle class="point" cx="377.8" cy="111.4" r="1.4"/><circle class="point" cx="377.8" cy="111.4" r="1.4"/><circle class="point" cx="383.3" cy="136.3" r="1.4"/><circle class="point" cx="383.6" cy="118.1" r="2.5"/><circle class="point" cx="384.6" cy="140.8" r="1.4"/><circle class="point" cx="389.0" cy="112.2" r="1.4"/><circle class="point" cx="389.2" cy="110.6" r="1.4"/><circle class="point" cx="389.9" cy="125.7" r="1.4"/><circle class="point" cx="391.3" cy="131.7" r="1.4"/><circle class="point" cx="391.7" cy="113.7" r="1.4"/><circle class="point" cx="395.9" cy="130.6" r="2.5"/><circle class="point" cx="396.8" cy="127.4" r="1.4"/><circle class="point" cx="398.9" cy="121.6" r="1.4"/><circle class="point" cx="400.4" cy="126.3" r="1.4"/><circle class="point" cx="405.7" cy="130.5" r="1.4"/><circle class="point" cx="406.5" cy="119.8" r="1.4"/><circle class="point" cx="407.4" cy="96.3" r="1.4"/><circle class="point" cx="408.6" cy="135.0" r="2.5"/><circle class="point" cx="408.7" cy="135.0" r="1.4"/><circle class="point" cx="408.9" cy="101.3" r="1.4"/><circle class="point" cx="408.9" cy="101.2" r="1.4"/><circle class="point" cx="409.6" cy="98.9" r="1.4"/><circle class="point" cx="409.6" cy="98.8" r="1.4"/><circle class="point" cx="409.9" cy="101.5" r="1.4"/><circle class="point" cx="413.2" cy="137.1" r="2.5"/><circle class="point" cx="420.1" cy="89.0" r="1.4"/><circle class="point" cx="420.2" cy="128.0" r="1.4"/><circle class="point" cx="422.2" cy="92.2" r="1.4"/><circle class="point" cx="422.2" cy="92.3" r="1.4"/><circle class="point" cx="423.8" cy="128.6" r="1.4"/><circle class="point" cx="426.7" cy="126.9" r="1.4"/><circle class="point" cx="426.7" cy="126.8" r="2.5"/><circle class="point" cx="436.4" cy="144.5" r="1.4"/><circle class="point" cx="439.2" cy="90.2" r="1.4"/><circle class="point" cx="449.1" cy="137.3" r="1.4"/><circle class="point" cx="449.2" cy="137.2" r="1.4"/><circle class="point" cx="449.2" cy="137.2" r="1.4"/><circle class="point" cx="458.6" cy="139.9" r="1.4"/><circle class="point" cx="458.6" cy="139.9" r="2.5"/><circle class="point" cx="471.8" cy="101.5" r="1.4"/><circle class="point" cx="624.4" cy="204.1" r="1.4"/><circle class="point" cx="624.5" cy="204.1" r="1.4"/><circle class="point" cx="639.9" cy="253.0" r="1.4"/><circle class="point" cx="658.0" cy="183.2" r="1.4"/><circle class="point" cx="691.4" cy="173.3" r="1.4"/><circle class="point" cx="709.2" cy="152.8" r="2.5"/><circle class="point" cx="713.8" cy="151.7" r="1.4"/><circle class="point" cx="714.4" cy="151.8" r="1.4"/><circle class="point" cx="720.3" cy="150.7" r="1.4"/><circle class="point" cx="720.6" cy="150.3" r="1.4"/><circle class="point" cx="720.7" cy="150.3" r="1.4"/><text x="780" y="406" fill="#fff" fill-opacity=".43" text-anchor="end" font-family="Arial,sans-serif" font-size="9" letter-spacing="2">ATLAS1910 · MAPA DE DADOS</text></svg>