<svg xmlns="http://www.w3.org/2000/svg" viewBox="0 0 800 420" role="img" aria-labelledby="title desc"><title id="title">Fiel Pelo Mundo</title><desc id="desc">Prévia em preto e branco dos pontos do conjunto Fiel Pelo Mundo.</desc><defs><pattern id="grid" width="48" height="48" patternUnits="userSpaceOnUse"><path d="M48 0H0V48" fill="none" stroke="#fff" stroke-opacity=".07" stroke-width=".7"/></pattern><radialGradient id="glow"><stop stop-color="#fff" stop-opacity=".12"/><stop offset="1" stop-color="#fff" stop-opacity="0"/></radialGradient><style>.route{fill:none;stroke:#f4f4f5;stroke-width:2.3;stroke-linecap:round;stroke-linejoin:round;stroke-dasharray:8 9;animation:flow 22s linear infinite}.route:nth-of-type(3n){stroke-opacity:.55;animation-duration:31s}.point{fill:#fff;stroke:#fff;stroke-width:1;animation:pulse 3.8s ease-in-out infinite;transform-box:fill-box;transform-origin:center}.point:nth-of-type(3n){animation-delay:1.1s}@keyframes flow{to{stroke-dashoffset:-340}}@keyframes pulse{0%,100%{opacity:.52;transform:scale(.8)}50%{opacity:1;transform:scale(1.4)}}@media(prefers-reduced-motion:reduce){.route,.point{animation:none!important}}</style></defs><rect width="800" height="420" fill="#090a0e"/><rect width="800" height="420" fill="url(#grid)"/><ellipse cx="416" cy="201.6" rx="384" ry="260.4" fill="url(#glow)"/><path d="M0 323.40000000000003H800M160 0V420M640 0V420" fill="none" stroke="#fff" stroke-opacity=".1" stroke-width=".8"/><circle class="point" cx="200.2" cy="130.0" r="2.5"/><circle class="point" cx="93.3" cy="152.3" r="1.4"/><circle class="point" cx="176.0" cy="162.2" r="1.4"/><circle class="point" cx="140.2" cy="151.3" r="1.4"/><circle class="point" cx="180.7" cy="126.9" r="1.4"/><circle class="point" cx="180.7" cy="126.9" r="1.4"/><circle class="point" cx="79.5" cy="114.0" r="1.4"/><circle class="point" cx="79.3" cy="114.0" r="2.5"/><circle class="point" cx="179.0" cy="168.5" r="1.4"/><circle class="point" cx="231.6" cy="316.3" r="1.4"/><circle class="point" cx="684.3" cy="147.7" r="1.4"/><circle class="point" cx="346.1" cy="142.2" r="1.4"/><circle class="point" cx="389.4" cy="107.0" r="1.4"/><circle class="point" cx="389.2" cy="109.6" r="1.4"/><circle class="point" cx="396.1" cy="106.5" r="2.5"/><circle class="point" cx="369.9" cy="132.3" r="1.4"/><circle class="point" cx="345.4" cy="131.9" r="1.4"/><circle class="point" cx="345.4" cy="135.0" r="1.4"/><circle class="point" cx="345.3" cy="107.9" r="1.4"/><circle class="point" cx="350.2" cy="103.7" r="1.4"/><circle class="point" cx="350.4" cy="104.5" r="1.4"/><circle class="point" cx="398.6" cy="144.9" r="2.5"/><circle class="point" cx="356.4" cy="134.5" r="1.4"/><circle class="point" cx="343.8" cy="138.4" r="1.4"/><circle class="point" cx="364.6" cy="108.8" r="1.4"/><circle class="point" cx="391.8" cy="116.6" r="1.4"/><circle class="point" cx="370.5" cy="114.8" r="1.4"/><circle class="point" cx="345.1" cy="132.8" r="1.4"/><circle class="point" cx="364.1" cy="136.7" r="2.5"/><circle class="point" cx="719.8" cy="291.9" r="1.4"/><circle class="point" cx="701.1" cy="315.9" r="1.4"/><circle class="point" cx="715.5" cy="306.7" r="1.4"/><circle class="point" cx="715.5" cy="306.7" r="1.4"/><circle class="point" cx="633.7" cy="302.3" r="1.4"/><circle class="point" cx="720.7" cy="293.2" r="1.4"/><text x="780" y="406" fill="#fff" fill-opacity=".43" text-anchor="end" font-family="Arial,sans-serif" font-size="9" letter-spacing="2">ATLAS1910 · MAPA DE DADOS</text></svg>